Coordinates
version=1
nRows=4
nColumns=107
inDegrees=yes

Units are S.I. units (second, meters, Newtons, ...)
If the header above contains a line with 'inDegrees', this indicates whether rotational values are in degrees (yes) or radians (no).

endheader
time	sternoclavicular_r2	sternoclavicular_r3	unrotscap_r3	unrotscap_r2	acromioclavicular_r2	acromioclavicular_r3	acromioclavicular_r1	unrothum_r1	unrothum_r3	unrothum_r2	elv_angle	shoulder_elv	shoulder1_r2	shoulder_rot	elbow_flexion	pro_sup	deviation	flexion	proximal_distal_r1	proximal_distal_r3	cmc_flexion	cmc_abduction	mp_flexion	ip_flexion	mcp2_flexion	mcp2_abduction	pm2_flexion	md2_flexion	mcp3_flexion	mcp3_abduction	pm3_flexion	md3_flexion	mcp4_flexion	mcp4_abduction	pm4_flexion	md4_flexion	mcp5_flexion	mcp5_abduction	pm5_flexion	md5_flexion	bicpt_tx	bicpt_ty	bicpt_tz	bicpt2_tx	bicpt2_ty	bicpt2_tz	ptpt_tx	ptpt_ty	ptpt_tz	FCUpt_tx	FCUpt_ty	FCUpt_tz	EDCpt_tx	EDCpt_ty	EDCpt_tz	APLpt_tx	APLpt_ty	APLpt_tz	FPLpt_tx	FPLpt_ty	FPLpt_tz	FPLpt2_tx	FPLpt2_ty	FPLpt2_tz	PEC1pt2_tx	PEC1pt2_ty	PEC1pt2_tz	PEC1pt3_tx	PEC1pt3_ty	PEC1pt3_tz	PEC2pt2_tx	PEC2pt2_ty	PEC2pt2_tz	PEC2pt3_tx	PEC2pt3_ty	PEC2pt3_tz	PEC3pt2_tx	PEC3pt2_ty	PEC3pt2_tz	PEC3pt3_tx	PEC3pt3_ty	PEC3pt3_tz	DELT2pt2a_tx	DELT2pt2a_ty	DELT2pt2a_tz	DELT2pt2_tx	DELT2pt2_ty	DELT2pt2_tz	LAT1pt2_tx	LAT1pt2_ty	LAT1pt2_tz	LAT1pt3_tx	LAT1pt3_ty	LAT1pt3_tz	LAT2pt2_tx	LAT2pt2_ty	LAT2pt2_tz	LAT2pt3_tx	LAT2pt3_ty	LAT2pt3_tz	LAT3pt2_tx	LAT3pt2_ty	LAT3pt2_tz	LAT3pt3_tx	LAT3pt3_ty	LAT3pt3_tz
      2.13333333	     -0.32187808	      0.13633236	     -0.13633236	      0.32187808	     -0.06517376	      0.52671144	      0.23675317	     -0.23675317	     -0.52671144	      0.06517376	     98.50272079	     76.20749744	     -1.71919680	    -20.07009443	     28.84102221	      5.67683336	     -0.09800738	     -0.39521384	     -0.14087193	     -0.19760692	      5.14908513	      7.73463732	    -23.77746943	     -6.88390688	     26.68590490	     12.74334675	     18.88835012	      0.00095619	     38.46211681	      9.69542683	     58.68693126	     38.17662454	     30.07810793	     -2.96047447	     62.49598818	     30.27774954	      2.97125240	    -13.70888291	     -2.77835711	      5.09339988	      0.00085397	     -0.03090562	     -0.00483245	      0.01516273	     -0.01803481	     -0.01030820	      0.00713055	     -0.06517123	     -0.00050730	      0.00450642	     -0.18404181	      0.00030082	     -0.00068122	      0.00016581	      0.00007359	      0.00027356	      0.00010942	      0.00054711	      0.00035015	      0.00105045	      0.00059088	      0.00003967	     -0.00011400	     -0.00013680	      0.00249791	      0.00876387	      0.00609660	     -0.00817114	      0.01972929	     -0.01871319	      0.00249791	      0.00876387	      0.00609660	      0.00055039	      0.01828981	     -0.00961062	      0.00394947	      0.00487348	      0.01597139	      0.00000000	      0.00776690	      0.00000000	     -0.00715504	     -0.03306561	     -0.00640410	      0.01381667	     -0.00043409	     -0.00332256	     -0.00088909	      0.01490281	     -0.00609660	      0.00245558	      0.02150747	     -0.01778176	     -0.00596959	      0.01291295	     -0.00546154	     -0.01244724	      0.02726537	     -0.03052536	     -0.02337032	      0.01443710	     -0.00732439	     -0.01549554	      0.03149913	     -0.03814612
      2.16666667	     -0.31305321	      0.13259457	     -0.13259457	      0.31305321	     -0.06338691	      0.51227069	      0.23026215	     -0.23026215	     -0.51227069	      0.06338691	    100.77021070	     74.11813064	     -1.75877196	    -31.29448175	     29.09935691	     14.13833216	     -0.10532519	     -0.30581852	     -0.15202111	     -0.15290926	      7.25287506	      7.40210030	    -22.12850873	     -5.19813998	     28.18278964	     12.83385373	     21.83215801	      0.33600284	     36.01234612	      8.73813848	     50.97472040	     34.11158745	     28.64276851	     -2.25642562	     54.11104272	     29.36449596	      8.02165056	    -13.66748881	     -0.83950578	      5.08897142	      0.00086252	     -0.03093523	     -0.00483722	      0.01576104	     -0.01810498	     -0.00976192	      0.00650534	     -0.06557550	     -0.00118892	      0.00527973	     -0.18393809	      0.00004901	     -0.00169660	      0.00043143	      0.00015084	      0.00023458	      0.00009383	      0.00046915	      0.00030026	      0.00090077	      0.00050668	      0.00003606	     -0.00015210	     -0.00018252	      0.00242943	      0.00852359	      0.00592946	     -0.00794712	      0.01918838	     -0.01820013	      0.00242943	      0.00852359	      0.00592946	      0.00053530	      0.01778837	     -0.00934713	      0.00386961	      0.00473986	      0.01577299	      0.00000000	      0.00734412	      0.00000000	     -0.00695887	     -0.03215906	     -0.00605301	      0.01944067	     -0.00080151	     -0.00813917	     -0.00086471	      0.01449422	     -0.00592946	      0.00238825	      0.02091780	     -0.01729425	     -0.00580593	      0.01255892	     -0.00531180	     -0.01210597	      0.02651784	     -0.02968845	     -0.02272958	      0.01404128	     -0.00712358	     -0.01507070	      0.03063552	     -0.03710027
      2.20000000	     -0.31410292	      0.13303917	     -0.13303917	      0.31410292	     -0.06359945	      0.51398840	      0.23103425	     -0.23103425	     -0.51398840	      0.06359945	    100.37446737	     74.36665846	     -1.75186494	    -29.55409507	     29.16187439	      9.99951865	     -0.06788887	     -0.24039099	     -0.09590717	     -0.12019549	      9.26419044	      5.09253313	    -18.43220455	     -6.78527638	     26.86253043	     12.88809918	     24.93293178	     -0.19212380	     31.87207330	      7.61648797	     43.24874209	     32.28934431	     26.49194909	     -1.20361211	     43.51289065	     29.43736466	     11.44595911	    -13.58733532	      2.76517229	      5.07179762	      0.00086458	     -0.03094240	     -0.00483837	      0.01548885	     -0.01812197	     -0.01004167	      0.00681115	     -0.06537775	     -0.00085551	      0.00489872	     -0.18399137	      0.00016544	     -0.00119994	      0.00029875	      0.00011790	      0.00019756	      0.00007902	      0.00039512	      0.00025288	      0.00075863	      0.00042673	      0.00003359	     -0.00018393	     -0.00022071	      0.00243758	      0.00855217	      0.00594934	     -0.00797377	      0.01925272	     -0.01826116	      0.00243758	      0.00855217	      0.00594934	      0.00053709	      0.01784801	     -0.00937847	      0.00387919	      0.00475575	      0.01579714	      0.00000000	      0.00739377	      0.00000000	     -0.00698221	     -0.03226689	     -0.00609425	      0.01867902	     -0.00074190	     -0.00728291	     -0.00086761	      0.01454283	     -0.00594934	      0.00239626	      0.02098794	     -0.01735223	     -0.00582539	      0.01260103	     -0.00532962	     -0.01214656	      0.02660676	     -0.02978800	     -0.02280579	      0.01408836	     -0.00714747	     -0.01512123	      0.03073824	     -0.03722468
      2.23333333	     -0.31331085	      0.13270369	     -0.13270369	      0.31331085	     -0.06343907	      0.51269228	      0.23045165	     -0.23045165	     -0.51269228	      0.06343907	    100.82027316	     74.17912799	     -1.75964572	    -30.90802583	     28.59289789	      8.18526852	     -0.08696879	     -0.24822364	     -0.12421965	     -0.12411182	     13.25606831	      0.57535317	    -19.24346960	     -3.59539665	     21.52807319	     12.57629502	     30.09712098	      3.50210181	     26.24604647	      5.75479202	     37.25149405	     28.00351157	     23.01929973	     -0.81084101	     35.97379443	     26.34061639	     16.60023410	    -13.62435355	      1.49156277	      5.11402615	      0.00084576	     -0.03087718	     -0.00482787	      0.01535717	     -0.01796740	     -0.01015672	      0.00694520	     -0.06529107	     -0.00070937	      0.00473337	     -0.18401318	      0.00022055	     -0.00098223	      0.00024225	      0.00010053	      0.00020237	      0.00008095	      0.00040474	      0.00025903	      0.00077709	      0.00043712	      0.00002740	     -0.00023378	     -0.00028053	      0.00243143	      0.00853061	      0.00593434	     -0.00795366	      0.01920417	     -0.01821511	      0.00243143	      0.00853061	      0.00593434	      0.00053574	      0.01780301	     -0.00935482	      0.00387197	      0.00474376	      0.01577893	      0.00000000	      0.00735629	      0.00000000	     -0.00696460	     -0.03218553	     -0.00606312	      0.01927504	     -0.00078820	     -0.00794591	     -0.00086542	      0.01450615	     -0.00593434	      0.00239022	      0.02093502	     -0.01730848	     -0.00581070	      0.01256925	     -0.00531618	     -0.01211593	      0.02653967	     -0.02971289	     -0.02274829	      0.01405284	     -0.00712944	     -0.01508310	      0.03066073	     -0.03713081
